name analog
datacolumns 19
datarows 34
range 0.17400000000000002 0.1905
endheader
time	ground_force_vx	ground_force_vy	ground_force_vz	ground_force_px	ground_force_py	ground_force_pz	l_ground_force_vx	l_ground_force_vy	l_ground_force_vz	l_ground_force_px	l_ground_force_py	l_ground_force_pz	ground_torque_x	ground_torque_y	ground_torque_z	l_ground_torque_x	l_ground_torque_y	l_ground_torque_z
0.17400000000000002	-0.0	-0.0	-0.0	-0.0	-0.0	-0.0	5.832766056060791	-6.27077579498291	-683.71240234375	-0.0	-0.0	-0.0	-0.0	-0.0	-0.0	207201.34375	-4065.010986328125	1197.8154296875
0.17450000000000002	-0.0	-0.0	-0.0	-0.0	-0.0	-0.0	6.60493278503418	-5.423962593078613	-683.6707763671875	-0.0	-0.0	-0.0	-0.0	-0.0	-0.0	207173.828125	-4366.14306640625	1206.047119140625
0.17500000000000002	-0.0	-0.0	-0.0	-0.0	-0.0	-0.0	7.461813449859619	-4.022757530212402	-683.77294921875	-0.0	-0.0	-0.0	-0.0	-0.0	-0.0	207611.125	-4642.56494140625	1374.21240234375
0.17550000000000002	-0.0	-0.0	-0.0	-0.0	-0.0	-0.0	8.129378318786621	-2.8189942836761475	-685.3216552734375	-0.0	-0.0	-0.0	-0.0	-0.0	-0.0	208507.453125	-5066.7890625	1587.96484375
0.176	-0.0	-0.0	-0.0	-0.0	-0.0	-0.0	8.254083633422852	-2.0097475051879883	-686.66259765625	-0.0	-0.0	-0.0	-0.0	-0.0	-0.0	208827.875	-5403.3291015625	1661.1904296875
0.1765	-0.0	-0.0	-0.0	-0.0	-0.0	-0.0	8.140893936157227	-1.6655837297439575	-687.9224853515625	-0.0	-0.0	-0.0	-0.0	-0.0	-0.0	209558.609375	-5776.265625	1427.7061767578125
0.177	-0.0	-0.0	-0.0	-0.0	-0.0	-0.0	7.96101188659668	-2.39503812789917	-688.2092895507812	-0.0	-0.0	-0.0	-0.0	-0.0	-0.0	210185.703125	-6105.970703125	1507.600341796875
0.1775	-0.0	-0.0	-0.0	-0.0	-0.0	-0.0	7.920809268951416	-2.908610582351685	-689.2874755859375	-0.0	-0.0	-0.0	-0.0	-0.0	-0.0	210628.09375	-6357.24609375	1296.2886962890625
0.178	-0.0	-0.0	-0.0	-0.0	-0.0	-0.0	7.415202617645264	-2.7457900047302246	-688.9547729492188	-0.0	-0.0	-0.0	-0.0	-0.0	-0.0	211008.625	-6582.13916015625	1281.4317626953125
0.1785	-0.0	-0.0	-0.0	-0.0	-0.0	-0.0	7.023856163024902	-2.143141746520996	-690.036376953125	-0.0	-0.0	-0.0	-0.0	-0.0	-0.0	211594.265625	-6919.9619140625	1092.4932861328125
0.179	-0.0	-0.0	-0.0	-0.0	-0.0	-0.0	7.098081588745117	-1.6924386024475098	-691.0122680664062	-0.0	-0.0	-0.0	-0.0	-0.0	-0.0	212112.5	-7196.38330078125	1118.3056640625
0.1795	-0.0	-0.0	-0.0	-0.0	-0.0	-0.0	7.717838287353516	-1.7928931713104248	-691.2156372070312	-0.0	-0.0	-0.0	-0.0	-0.0	-0.0	212956.34375	-7099.71875	1170.81787109375
0.18	-0.0	-0.0	-0.0	-0.0	-0.0	-0.0	7.681254386901855	-1.283965826034546	-692.86083984375	-0.0	-0.0	-0.0	-0.0	-0.0	-0.0	213525.953125	-7305.5986328125	996.2833862304688
0.1805	-0.0	-0.0	-0.0	-0.0	-0.0	-0.0	7.281986236572266	-1.2287917137145996	-695.2747802734375	-0.0	-0.0	-0.0	-0.0	-0.0	-0.0	214921.5625	-7386.54150390625	741.3134155273438
0.181	-0.0	-0.0	-0.0	-0.0	-0.0	-0.0	6.394024848937988	-0.9465272426605223	-701.1937255859375	-0.0	-0.0	-0.0	-0.0	-0.0	-0.0	216968.015625	-7354.93212890625	289.6628112792969
0.1815	-0.0	-0.0	-0.0	-0.0	-0.0	-0.0	5.986377716064453	-0.4568597078323364	-708.6697387695312	-0.0	-0.0	-0.0	-0.0	-0.0	-0.0	220147.9375	-7274.009765625	14.386173248291016
0.182	-0.0	-0.0	-0.0	-0.0	-0.0	-0.0	5.251584529876709	0.8983988761901855	-718.330322265625	-0.0	-0.0	-0.0	-0.0	-0.0	-0.0	223685.546875	-7349.271484375	-331.844482421875
0.1825	-0.0	-0.0	-0.0	-0.0	-0.0	-0.0	4.9235124588012695	2.319047689437866	-727.7523803710938	-0.0	-0.0	-0.0	-0.0	-0.0	-0.0	226736.671875	-7294.76904296875	-662.923583984375
0.183	-0.0	-0.0	-0.0	-0.0	-0.0	-0.0	4.538334846496582	3.652341365814209	-736.5223388671875	-0.0	-0.0	-0.0	-0.0	-0.0	-0.0	230071.921875	-6930.68408203125	-879.60693359375
0.1835	-0.0	-0.0	-0.0	-0.0	-0.0	-0.0	2.7366278171539307	5.932547569274902	-747.2964477539062	-0.0	-0.0	-0.0	-0.0	-0.0	-0.0	233838.140625	-6648.3212890625	-1366.6820068359375
0.184	-0.0	-0.0	-0.0	-0.0	-0.0	-0.0	1.415345311164856	7.161888599395752	-753.383056640625	-0.0	-0.0	-0.0	-0.0	-0.0	-0.0	236305.015625	-6174.9404296875	-1822.907470703125
0.1845	-0.0	-0.0	-0.0	-0.0	-0.0	-0.0	0.597969114780426	7.764887809753418	-757.1964111328125	-0.0	-0.0	-0.0	-0.0	-0.0	-0.0	237930.34375	-5693.7802734375	-2108.741455078125
0.185	-0.0	-0.0	-0.0	-0.0	-0.0	-0.0	-1.1279897689819336	7.738602161407471	-761.7476196289062	-0.0	-0.0	-0.0	-0.0	-0.0	-0.0	239137.515625	-5116.84814453125	-2414.14306640625
0.1855	-0.0	-0.0	-0.0	-0.0	-0.0	-0.0	-2.9274559020996094	6.712804794311523	-765.7479248046875	-0.0	-0.0	-0.0	-0.0	-0.0	-0.0	240563.953125	-4621.388671875	-2813.616455078125
0.186	-0.0	-0.0	-0.0	-0.0	-0.0	-0.0	-3.807232141494751	6.833937644958496	-767.2606201171875	-0.0	-0.0	-0.0	-0.0	-0.0	-0.0	240750.71875	-4494.958984375	-3013.10205078125
0.1865	-0.0	-0.0	-0.0	-0.0	-0.0	-0.0	-4.250950813293457	5.792280197143555	-766.99853515625	-0.0	-0.0	-0.0	-0.0	-0.0	-0.0	240841.234375	-4311.18017578125	-3096.658203125
0.187	-0.0	-0.0	-0.0	-0.0	-0.0	-0.0	-4.128504753112793	5.523972511291504	-765.6014404296875	-0.0	-0.0	-0.0	-0.0	-0.0	-0.0	240557.96875	-4117.888671875	-3087.04150390625
0.1875	-0.0	-0.0	-0.0	-0.0	-0.0	-0.0	-4.125640392303467	4.9605393409729	-764.40771484375	-0.0	-0.0	-0.0	-0.0	-0.0	-0.0	239868.1875	-4047.8544921875	-2889.63037109375
0.188	-0.0	-0.0	-0.0	-0.0	-0.0	-0.0	-3.219338893890381	4.0551838874816895	-764.0940551757812	-0.0	-0.0	-0.0	-0.0	-0.0	-0.0	239532.640625	-4189.7548828125	-2666.420166015625
0.1885	-0.0	-0.0	-0.0	-0.0	-0.0	-0.0	-3.42984938621521	3.09846830368042	-761.4996337890625	-0.0	-0.0	-0.0	-0.0	-0.0	-0.0	238763.5625	-3859.34033203125	-2580.30712890625
0.189	-0.0	-0.0	-0.0	-0.0	-0.0	-0.0	-4.085925579071045	2.2204573154449463	-760.834228515625	-0.0	-0.0	-0.0	-0.0	-0.0	-0.0	238256.296875	-3721.24072265625	-2795.100341796875
0.1895	-0.0	-0.0	-0.0	-0.0	-0.0	-0.0	-4.584213733673096	0.8975274562835693	-759.7636108398438	-0.0	-0.0	-0.0	-0.0	-0.0	-0.0	238141.75	-3648.334716796875	-2939.772216796875
0.19	-0.0	-0.0	-0.0	-0.0	-0.0	-0.0	-4.910587787628174	0.0370488092303276	-759.8694458007812	-0.0	-0.0	-0.0	-0.0	-0.0	-0.0	237986.09375	-3409.83447265625	-3035.680908203125
0.1905	-0.0	-0.0	-0.0	-0.0	-0.0	-0.0	-5.233808517456055	0.2649015188217163	-760.5142822265625	-0.0	-0.0	-0.0	-0.0	-0.0	-0.0	237930.375	-2937.28662109375	-3200.194580078125
